<svg xmlns="http://www.w3.org/2000/svg" width="1200" height="680" viewBox="0 0 1200 680" role="img" aria-labelledby="title desc">
  <title id="title">Autter platform overview placeholder</title>
  <desc id="desc">Wireframe of the Autter platform with navigation, review activity, and repository status.</desc>
  <rect width="1200" height="680" fill="#F1ECE0"/>
  <rect x="36" y="36" width="1128" height="608" rx="18" fill="#FFFFFF" stroke="#1E2D4A" stroke-width="3"/>
  <rect x="36" y="36" width="230" height="608" rx="18" fill="#1E2D4A"/>
  <text x="76" y="92" fill="#2EFFD1" font-family="monospace" font-size="24" font-weight="700">autter.</text>
  <g fill="#FFFFFF" font-family="sans-serif" font-size="18"><text x="76" y="166">Overview</text><text x="76" y="214">Repositories</text><text x="76" y="262">Analytics</text><text x="76" y="310">Settings</text></g>
  <text x="310" y="92" fill="#1E2D4A" font-family="serif" font-size="34" font-weight="700">Review overview</text>
  <rect x="310" y="128" width="250" height="120" rx="12" fill="#E9FDF8" stroke="#00A88A"/><rect x="584" y="128" width="250" height="120" rx="12" fill="#F7F5EF" stroke="#1E2D4A"/><rect x="858" y="128" width="250" height="120" rx="12" fill="#F7F5EF" stroke="#1E2D4A"/>
  <g fill="#1E2D4A" font-family="sans-serif"><text x="334" y="164" font-size="15">OPEN REVIEWS</text><text x="334" y="218" font-size="38" font-weight="700">12</text><text x="608" y="164" font-size="15">MERGED THIS WEEK</text><text x="608" y="218" font-size="38" font-weight="700">34</text><text x="882" y="164" font-size="15">REPOSITORIES</text><text x="882" y="218" font-size="38" font-weight="700">8</text></g>
  <rect x="310" y="286" width="798" height="278" rx="12" fill="#FAF9F5" stroke="#C7C0B5"/>
  <text x="338" y="328" fill="#1E2D4A" font-family="sans-serif" font-size="18" font-weight="700">Recent pull requests</text>
  <g stroke="#D8D2C8"><line x1="338" y1="362" x2="1080" y2="362"/><line x1="338" y1="422" x2="1080" y2="422"/><line x1="338" y1="482" x2="1080" y2="482"/></g>
  <g fill="#1E2D4A" font-family="monospace" font-size="15"><text x="338" y="399">payments: retry webhook delivery</text><text x="338" y="459">api: validate account ownership</text><text x="338" y="519">ui: migrate color tokens</text></g>
  <rect x="430" y="594" width="530" height="28" rx="14" fill="#1E2D4A"/><text x="695" y="614" text-anchor="middle" fill="#FFFFFF" font-family="monospace" font-size="14">PLACEHOLDER — REPLACE WITH APPROVED SCREENSHOT</text>
</svg>
