<svg xmlns="http://www.w3.org/2000/svg" width="1200" height="620" viewBox="0 0 1200 620" role="img" aria-labelledby="title desc">
  <title id="title">Platform settings placeholder</title><desc id="desc">Wireframe of review, rule, pipeline, and integration settings.</desc>
  <rect width="1200" height="620" fill="#F1ECE0"/><rect x="60" y="48" width="1080" height="524" rx="18" fill="#FFFFFF" stroke="#1E2D4A" stroke-width="3"/>
  <text x="110" y="110" fill="#1E2D4A" font-family="serif" font-size="34" font-weight="700">Settings</text>
  <g font-family="sans-serif" font-size="18"><rect x="110" y="150" width="230" height="54" rx="8" fill="#1E2D4A"/><text x="140" y="184" fill="#FFFFFF">Review behavior</text><text x="140" y="242" fill="#1E2D4A">Team rules</text><text x="140" y="300" fill="#1E2D4A">Pipeline checks</text><text x="140" y="358" fill="#1E2D4A">Integrations</text></g>
  <rect x="390" y="150" width="690" height="320" rx="12" fill="#FAF9F5" stroke="#C7C0B5"/><text x="430" y="198" fill="#1E2D4A" font-family="sans-serif" font-size="22" font-weight="700">Review behavior</text>
  <g fill="#1E2D4A" font-family="sans-serif" font-size="17"><text x="430" y="254">Review connected pull requests</text><text x="430" y="324">Include repository documentation</text><text x="430" y="394">Show suggested fixes</text></g>
  <g><rect x="952" y="230" width="70" height="34" rx="17" fill="#00A88A"/><circle cx="1004" cy="247" r="13" fill="#FFFFFF"/><rect x="952" y="300" width="70" height="34" rx="17" fill="#00A88A"/><circle cx="1004" cy="317" r="13" fill="#FFFFFF"/><rect x="952" y="370" width="70" height="34" rx="17" fill="#1E2D4A"/><circle cx="970" cy="387" r="13" fill="#FFFFFF"/></g>
  <text x="735" y="530" text-anchor="middle" fill="#1E2D4A" font-family="monospace" font-size="14">PLACEHOLDER — CONFIRM LABELS BEFORE REPLACEMENT</text>
</svg>
