<svg xmlns="http://www.w3.org/2000/svg" width="1200" height="620" viewBox="0 0 1200 620" role="img" aria-labelledby="title desc">
  <title id="title">Repository wiki placeholder</title><desc id="desc">Wireframe of generated repository documentation with navigation and architecture content.</desc>
  <rect width="1200" height="620" fill="#F1ECE0"/><rect x="60" y="48" width="1080" height="524" rx="18" fill="#FFFFFF" stroke="#1E2D4A" stroke-width="3"/><rect x="60" y="48" width="280" height="524" rx="18" fill="#FAF9F5"/>
  <text x="100" y="108" fill="#1E2D4A" font-family="serif" font-size="28" font-weight="700">Repository wiki</text><g fill="#1E2D4A" font-family="sans-serif" font-size="17"><text x="100" y="170">Overview</text><text x="100" y="215">Architecture</text><text x="100" y="260">Modules</text><text x="100" y="305">APIs</text><text x="100" y="350">Ownership</text></g>
  <text x="390" y="110" fill="#1E2D4A" font-family="serif" font-size="34" font-weight="700">System architecture</text><rect x="390" y="145" width="690" height="54" rx="10" fill="#E9FDF8" stroke="#00A88A"/><text x="420" y="179" fill="#1E2D4A" font-family="sans-serif" font-size="16">Ask a question about this repository...</text>
  <g fill="#FFFFFF" stroke="#1E2D4A" stroke-width="2"><rect x="430" y="270" width="170" height="88" rx="10"/><rect x="660" y="270" width="170" height="88" rx="10"/><rect x="890" y="270" width="150" height="88" rx="10"/></g><g fill="#1E2D4A" font-family="sans-serif" font-size="17" font-weight="700" text-anchor="middle"><text x="515" y="320">Web app</text><text x="745" y="320">API</text><text x="965" y="320">Database</text></g><g stroke="#00A88A" stroke-width="4"><line x1="600" y1="314" x2="660" y2="314"/><line x1="830" y1="314" x2="890" y2="314"/></g>
  <text x="735" y="520" text-anchor="middle" fill="#1E2D4A" font-family="monospace" font-size="14">PLACEHOLDER — CONFIRM GENERATED PAGE TYPES</text>
</svg>
